#N canvas 827 239 527 327 12;
#X declare -lib iemlib;
#X obj 648 -86 noise~;
#X obj 648 59 lop~ 5000;
#X obj 239 -447 bng 25 250 50 0 empty empty empty 17 7 0 10 #191919 #ffffff #ffffff;
#X obj 259 -70 line~;
#X obj 648 29 *~;
#X obj 364 1765 dac~;
#X obj 264 615 send~ fb;
#X obj 696 90 receive~ fb;
#X obj 366 531 hsl 128 17 1 300 0 0 empty empty empty -2 -8 0 10 #191919 #ffffff #ffffff 0 1;
#X obj 239 375 delread~ buffer 0.1;
#X obj 648 119 delwrite~ buffer 100;
#X obj 382 421 hsl 128 17 0 127 0 0 empty empty empty -2 -8 0 10 #191919 #ffffff #ffffff 0 1;
#X floatatom 379 447 5 0 0 0 - - - 12;
#X obj 379 472 mtof;
#X obj 329 674 hsl 128 17 0 127 0 0 empty empty empty -2 -8 0 10 #191919 #ffffff #ffffff 0 1;
#X obj 323 698 / 128;
#X obj 239 -181 sel 0;
#X floatatom 323 724 5 0 0 0 - - - 12;
#X obj 239 145 mtof;
#X floatatom 348 119 5 0 0 0 - - - 12;
#X floatatom 239 244 5 0 0 0 - - - 12;
#X msg 38 -12 50;
#X msg 38 20 53;
#X msg 38 85 57;
#X msg 38 119 60;
#X msg 38 54 55;
#X msg 38 151 62;
#X msg 38 189 65;
#X msg 38 220 67;
#X msg 39 248 69;
#X obj 239 94 sel 0 1 2 3 4 5 6 7 8;
#X obj 239 68 random 8;
#X msg 172 244 1000;
#X obj 239 269 /;
#X floatatom 239 295 5 0 0 0 - - - 12;
#X text 511 529 resonance;
#X obj 239 957 *~ 1;
#X floatatom 379 498 5 0 0 0 - - - 12;
#X obj 397 1256 hsl 128 17 0 127 0 0 empty empty empty -2 -8 0 10 #191919 #ffffff #ffffff 0 1;
#X obj 382 1290 / 127;
#X floatatom 382 1319 5 0 0 0 - - - 12;
#X floatatom 354 613 5 0 0 0 - - - 12;
#X msg 481 1341 1;
#X obj 264 1379 -;
#X floatatom 264 1413 5 0 0 0 - - - 12;
#X text 524 420 twang;
#X text 317 420 drum;
#X floatatom 408 555 5 0 0 0 - - - 12;
#X text 525 1253 reverb dry/wet;
#X obj 285 -363 hsl 128 17 0 24 0 0 empty empty empty -2 -8 0 10 #191919 #ffffff #ffffff 0 1;
#X floatatom 269 -241 5 0 0 0 - - - 12;
#X obj 388 1442 rev2~ 99 80 1000 10;
#X obj 748 -48 hsl 128 17 0.5 20 1 0 empty empty empty -2 -8 0 10 #191919 #ffffff #ffffff 0 1;
#X obj 751 -111 hsl 128 17 100 10000 1 0 empty empty empty -2 -8 0 10 #191919 #ffffff #ffffff 0 1;
#X obj 510 674 hsl 128 17 0 127 0 0 empty empty empty -2 -8 0 10 #191919 #ffffff #ffffff 0 1;
#X obj 501 699 / 128;
#X floatatom 501 727 5 0 0 0 - - - 12;
#X text -109 -352 1 Resonance \; 2 Cutoff \; \; 3 Note Probability \; \; 4 Twang \; 5 Resonance \; \; 6 Delay 1 \; 7 Delay 1/3 \; 8 Delay 1/2 \; 9 Delay 30 \; \; 10 Reverb;
#X obj 354 555 201;
#X text 879 -49 res;
#X text 879 -112 cuttof;
#X floatatom 745 -88 5 0 0 0 - - - 12;
#X floatatom 745 -24 5 0 0 0 - - - 12;
#X msg 259 -136 1 5;
#X msg 322 -110 0 5;
#X obj 376 1031 *~;
#X obj 813 951 tgl 25 0 empty empty empty 17 7 0 10 #191919 #ffffff #ffffff 0 1;
#X text 850 950 Tape Delay;
#X obj 388 1388 *~ 0.3;
#X obj 239 1450 *~ 0.7;
#X obj -575 -167 phasor~ 220;
#X msg -352 -270 43;
#X msg -307 -268 45;
#X msg -262 -268 48;
#X obj -396 -351 bng 25 250 50 0 empty empty empty 17 7 0 10 #191919 #ffffff #ffffff;
#X obj -352 -351 bng 25 250 50 0 empty empty empty 17 7 0 10 #191919 #ffffff #ffffff;
#X obj -307 -351 bng 25 250 50 0 empty empty empty 17 7 0 10 #191919 #ffffff #ffffff;
#X obj -262 -351 bng 25 250 50 0 empty empty empty 17 7 0 10 #191919 #ffffff #ffffff;
#X obj -575 -199 mtof;
#X obj -430 -117 line~;
#X obj -575 -71 *~;
#X msg -396 -272 38;
#X obj -437 -351 bng 25 250 50 0 empty empty empty 17 7 0 10 #191919 #ffffff #ffffff;
#X msg -437 -272 36;
#X obj -537 -351 bng 25 250 50 0 empty empty empty 17 7 0 10 #191919 #ffffff #ffffff;
#X msg -537 -272 26;
#X obj -387 47 vcf~;
#X obj -284 36 hsl 128 17 0.5 20 1 1 empty empty empty -2 -8 0 10 #191919 #ffffff #ffffff 1707 1;
#X obj -287 -35 hsl 128 17 100 10000 1 1 empty empty empty -2 -8 0 10 #191919 #ffffff #ffffff 0 1;
#X floatatom -290 -1 5 0 0 0 - - - 12;
#X floatatom -290 60 5 0 0 0 - - - 12;
#X obj -268 -91 snapshot~;
#X obj -229 -131 metro 10;
#X obj 354 587 / 301;
#X floatatom -290 111 5 0 0 0 - - - 12;
#X floatatom -290 162 5 0 0 0 - - - 12;
#X obj -218 -351 bng 25 250 50 0 empty empty empty 17 7 0 10 #191919 #ffffff #ffffff;
#X msg -218 -268 50;
#X floatatom -164 -65 5 0 0 0 - - - 12;
#X obj 364 1528 *~ 0.5;
#X obj 323 804 delwrite~ deleff1 300;
#X obj 323 832 delread~ deleff1 300;
#X text 377 697 300ms delay fb;
#X text 582 696 800ms delay fb;
#X obj 501 798 delwrite~ deleff2 800;
#X obj 501 826 delread~ deleff2 800;
#X obj 376 1064 lop~ 1000;
#X obj 532 1045 +~ 2000;
#X floatatom 532 1097 5 0 0 0 - - - 12;
#X obj 620 1045 metro 10;
#X obj 532 1071 snapshot~;
#X obj 532 1019 *~ 10;
#X obj 722 679 hsl 128 17 0 127 0 0 empty empty empty -2 -8 0 10 #191919 #ffffff #ffffff 0 1;
#X obj 713 704 / 128;
#X floatatom 713 732 5 0 0 0 - - - 12;
#X text 778 703 1000ms delay fb;
#X obj 713 803 delwrite~ deleff3 1000;
#X obj 713 831 delread~ deleff3 1000;
#X text 646 1012 wow;
#X text 529 1603 5 min memory delay fb;
#X obj 436 1594 *~ 0.5;
#X obj 648 -12 vcf~;
#X text -385 -427 Bass Voice;
#X msg 755 -166 500;
#X msg 824 -166 0.75;
#X text 377 723 default: 0.5;
#X text 778 731 default: 0.5;
#X text 582 726 default: 0.5;
#X obj -141 111 osc~ 0.1;
#X obj -141 137 snapshot~;
#X obj -215 111 metro 10;
#X floatatom -141 163 5 0 0 0 - - - 12;
#X obj -141 188 + 1;
#X obj -141 214 / 2;
#X floatatom -141 240 5 0 0 0 - - - 12;
#X floatatom -141 329 5 0 0 0 - - - 12;
#X obj -141 295 + 0.5;
#X obj -141 265 * 7;
#X obj 497 1689 *~ 0.5;
#X obj 1019 254 line~;
#X obj 1019 280 snapshot~;
#X obj 955 255 metro 10;
#X floatatom 1019 306 5 0 0 0 - - - 12;
#X obj 1054 121 bng 25 250 50 0 empty empty empty 17 7 0 10 #191919 #ffffff #ffffff;
#X obj 1091 206 delay 2500;
#X obj 1501 315 line~;
#X obj 1501 341 snapshot~;
#X obj 1437 316 metro 10;
#X floatatom 1501 367 5 0 0 0 - - - 12;
#X msg 1501 267 127 200;
#X msg 1573 293 0 200;
#X obj 1497 166 delay 1000;
#X obj 1501 220 metro 33000;
#X msg 1019 206 127 1000;
#X msg 1091 232 0 1000;
#X obj 1532 121 bng 25 250 50 0 empty empty empty 17 7 0 10 #191919 #ffffff #ffffff;
#X obj -363 -167 delay 1000;
#X obj 1259 267 line~;
#X obj 1259 293 snapshot~;
#X obj 1195 268 metro 10;
#X floatatom 1259 319 5 0 0 0 - - - 12;
#X obj 1294 134 bng 25 250 50 0 empty empty empty 17 7 0 10 #191919 #ffffff #ffffff;
#X msg 1259 219 127 1000;
#X msg 1331 245 0 1000;
#X obj 1019 159 metro 29000;
#X obj 1259 172 metro 19000;
#X obj 1207 121 delay 2500;
#X obj 1573 267 delay 7000;
#X obj 376 993 *~ 0.5;
#X msg -900 -318 devices;
#X msg -786 -275 close;
#X obj -900 -218 comport 7 9600;
#X obj -900 -167 sel 13 10;
#X obj -900 -116 zl group 100;
#X obj -900 -39 fromsymbol;
#X obj -900 12 print line;
#X obj -1040 -318 declare -lib iemlib;
#X obj -900 -82 iem_alisttosym;
#X obj -900 78 unpack s f s f s f;
#X floatatom -884 123 5 0 0 0 - - - 12;
#X floatatom -850 304 5 0 0 0 - - - 12;
#X floatatom -816 523 5 0 0 0 - - - 12;
#X obj -884 181 * 10;
#X obj -884 239 s tempo;
#X obj 387 -583 r tempo;
#X floatatom -926 207 5 0 0 0 - - - 12;
#X text -933 152 temperature;
#X floatatom 387 -512 5 0 0 0 - - - 12;
#X text -795 304 light;
#X text -765 522 comment;
#X floatatom -775 329 5 0 0 0 - - - 12;
#X obj -850 355 * 90;
#X floatatom -775 355 5 0 0 0 - - - 12;
#X obj -850 381 + 10;
#X floatatom -775 381 5 0 0 0 - - - 12;
#X obj -850 329 / 42000;
#X obj -850 407 s reverb;
#X obj 405 1202 r reverb;
#X obj 532 993 osc~ 0.2;
#X obj 323 766 *~ 0.1;
#X obj 501 767 *~ 0.1;
#X obj 713 772 *~ 0.1;
#X obj 1331 219 delay 3000;
#X obj 713 857 *~ 0.5;
#X obj 501 852 *~ 0.5;
#X obj 323 858 *~ 0.5;
#X obj 463 -453 s beat;
#X floatatom 387 -453 5 0 0 0 - - - 12;
#X obj 376 1097 delwrite~ tape 3600;
#X obj 376 1132 delread~ tape 3600;
#X msg -430 -167 1 1000;
#X obj -284 -167 delay 2000;
#X msg -363 -140 0.75 1000;
#X obj -389 1240 *~ 0.3;
#X obj -387 73 *~ 1;
#X obj -290 85 / 2;
#X obj -290 136 + 1;
#X text 484 452 (75-127;
#X obj 497 1635 delwrite~ deleff4 100000;
#X obj 497 1663 delread~ deleff4 100000;
#X obj 239 1171 lop~ 2000;
#X obj 585 361 r twang;
#X obj -816 574 / 2800;
#X obj -816 548 + 1000;
#X floatatom -816 600 5 0 0 0 - - - 12;
#X obj -816 625 * 50;
#X obj -816 651 + 75;
#X floatatom -816 677 5 0 0 0 - - - 12;
#X obj -816 702 s twang;
#X floatatom 585 387 5 0 0 0 - - - 12;
#X obj 284 1107 *~ 0.35;
#X msg -871 -275 open 6;
#X obj -7 -649 bng 25 250 50 0 empty empty empty 17 7 0 10 #191919 #ffffff #ffffff;
#X text 36 -643 mute input button;
#X obj -201 -167 r load;
#X obj 239 -479 r load;
#X obj 955 99 r load;
#X obj 1195 74 r load;
#X obj 1437 121 r load;
#X obj 239 747 *~ 1;
#X obj -214 82 r load;
#X obj 755 -199 r load;
#X msg -284 -140 0 4000;
#X obj 264 587 *~ 0.98;
#X obj 264 488 lop~ 3300;
#X text 422 -364 note probability;
#X obj 239 -289 random 6;
#X text 613 -213 Karplus-Strong \;;
#X text 613 -187 Sound engine;
#X obj -268 -65 * 1000;
#X obj 322 -136 delay 10;
#X obj -482 -351 bng 25 250 50 0 empty empty empty 17 7 0 10 #191919 #ffffff #ffffff;
#X msg -482 -272 34;
#X msg 553 -524 2;
#X msg 587 -524 4;
#X msg 452 -524 0.25;
#X obj 387 -479 *;
#X obj 239 -415 metro;
#X obj 461 -552 metro 500;
#X obj 585 -583 r load;
#X text 624 -525 default multipler;
#X obj 971 -499 +;
#X obj 880 -486 f;
#X floatatom 880 -449 5 0 0 0 - - - 12;
#X obj 971 -473 max 0;
#X obj 820 -622 bng 25 250 50 0 empty empty empty 17 7 0 10 #191919 #ffffff #ffffff;
#X obj 820 -564 +;
#X obj 820 -538 min 1;
#X obj 971 -564 metro 10;
#X obj 973 -603 loadbang;
#X obj 971 -538 - 0.001;
#X floatatom 880 -363 5 0 0 0 - - - 12;
#X msg 820 -590 0.25;
#X obj 880 -389 + 10;
#X obj 880 -415 * -10;
#X text 863 -619 excitation button;
#X text 635 -586 Tempo multiplier;
#X msg 505 -522 1;
#X obj 129 -538 bng 51 250 50 0 empty empty empty 17 7 0 10 #191919 #ffffff #ffffff;
#X text 192 -539 Note;
#X obj 239 1240 *~ 8;
#X connect 0 0 121 0;
#X connect 1 0 10 0;
#X connect 2 0 109 0;
#X connect 2 0 257 0;
#X connect 2 0 258 0;
#X connect 3 0 4 1;
#X connect 4 0 1 0;
#X connect 7 0 10 0;
#X connect 8 0 47 0;
#X connect 8 0 58 0;
#X connect 9 0 239 0;
#X connect 9 0 244 0;
#X connect 11 0 12 0;
#X connect 12 0 13 0;
#X connect 13 0 37 0;
#X connect 13 0 244 1;
#X connect 14 0 15 0;
#X connect 15 0 17 0;
#X connect 15 0 199 1;
#X connect 16 0 63 0;
#X connect 16 0 31 0;
#X connect 16 0 250 0;
#X connect 18 0 20 0;
#X connect 18 0 32 0;
#X connect 20 0 33 1;
#X connect 21 0 18 0;
#X connect 22 0 18 0;
#X connect 23 0 18 0;
#X connect 24 0 18 0;
#X connect 25 0 18 0;
#X connect 26 0 18 0;
#X connect 27 0 18 0;
#X connect 28 0 18 0;
#X connect 29 0 18 0;
#X connect 30 0 21 0;
#X connect 30 1 22 0;
#X connect 30 2 25 0;
#X connect 30 3 23 0;
#X connect 30 4 24 0;
#X connect 30 5 26 0;
#X connect 30 6 27 0;
#X connect 30 7 28 0;
#X connect 30 8 29 0;
#X connect 31 0 19 0;
#X connect 31 0 30 0;
#X connect 32 0 33 0;
#X connect 33 0 34 0;
#X connect 34 0 9 0;
#X connect 36 0 168 0;
#X connect 36 0 220 0;
#X connect 38 0 39 0;
#X connect 38 0 42 0;
#X connect 39 0 40 0;
#X connect 40 0 43 1;
#X connect 40 0 68 1;
#X connect 42 0 43 0;
#X connect 43 0 44 0;
#X connect 44 0 69 1;
#X connect 49 0 246 1;
#X connect 51 0 99 0;
#X connect 51 1 99 0;
#X connect 51 2 99 0;
#X connect 51 3 99 0;
#X connect 52 0 62 0;
#X connect 52 0 121 2;
#X connect 53 0 61 0;
#X connect 53 0 121 1;
#X connect 54 0 55 0;
#X connect 55 0 56 0;
#X connect 55 0 200 1;
#X connect 58 0 93 0;
#X connect 63 0 3 0;
#X connect 64 0 3 0;
#X connect 65 0 106 0;
#X connect 66 0 65 1;
#X connect 68 0 51 0;
#X connect 69 0 99 0;
#X connect 70 0 80 0;
#X connect 71 0 78 0;
#X connect 72 0 78 0;
#X connect 73 0 78 0;
#X connect 74 0 210 0;
#X connect 74 0 81 0;
#X connect 74 0 156 0;
#X connect 74 0 211 0;
#X connect 75 0 210 0;
#X connect 75 0 71 0;
#X connect 75 0 156 0;
#X connect 75 0 211 0;
#X connect 76 0 210 0;
#X connect 76 0 72 0;
#X connect 76 0 156 0;
#X connect 76 0 211 0;
#X connect 77 0 210 0;
#X connect 77 0 73 0;
#X connect 77 0 156 0;
#X connect 77 0 211 0;
#X connect 78 0 70 0;
#X connect 79 0 80 1;
#X connect 79 0 91 0;
#X connect 80 0 86 0;
#X connect 81 0 78 0;
#X connect 82 0 83 0;
#X connect 82 0 210 0;
#X connect 82 0 156 0;
#X connect 82 0 211 0;
#X connect 83 0 78 0;
#X connect 84 0 85 0;
#X connect 84 0 210 0;
#X connect 84 0 156 0;
#X connect 84 0 211 0;
#X connect 85 0 78 0;
#X connect 86 0 214 0;
#X connect 87 0 86 2;
#X connect 87 0 90 0;
#X connect 88 0 86 1;
#X connect 88 0 89 0;
#X connect 90 0 215 0;
#X connect 91 0 98 0;
#X connect 91 0 249 0;
#X connect 92 0 91 0;
#X connect 93 0 41 0;
#X connect 93 0 243 1;
#X connect 94 0 216 0;
#X connect 95 0 214 1;
#X connect 96 0 97 0;
#X connect 96 0 210 0;
#X connect 96 0 156 0;
#X connect 96 0 211 0;
#X connect 97 0 78 0;
#X connect 99 0 5 0;
#X connect 99 0 5 1;
#X connect 99 0 120 0;
#X connect 101 0 205 0;
#X connect 105 0 204 0;
#X connect 106 0 208 0;
#X connect 107 0 110 0;
#X connect 108 0 209 0;
#X connect 109 0 110 0;
#X connect 110 0 108 0;
#X connect 111 0 107 0;
#X connect 112 0 113 0;
#X connect 113 0 114 0;
#X connect 113 0 201 1;
#X connect 117 0 203 0;
#X connect 120 0 218 0;
#X connect 121 0 4 0;
#X connect 123 0 53 0;
#X connect 124 0 52 0;
#X connect 128 0 129 0;
#X connect 129 0 131 0;
#X connect 130 0 129 0;
#X connect 131 0 132 0;
#X connect 132 0 133 0;
#X connect 133 0 134 0;
#X connect 134 0 137 0;
#X connect 135 0 87 0;
#X connect 136 0 135 0;
#X connect 137 0 136 0;
#X connect 138 0 5 0;
#X connect 138 0 5 1;
#X connect 139 0 140 0;
#X connect 140 0 142 0;
#X connect 141 0 140 0;
#X connect 143 0 153 0;
#X connect 144 0 154 0;
#X connect 145 0 146 0;
#X connect 146 0 148 0;
#X connect 147 0 146 0;
#X connect 149 0 145 0;
#X connect 150 0 145 0;
#X connect 151 0 152 0;
#X connect 152 0 149 0;
#X connect 152 0 167 0;
#X connect 153 0 139 0;
#X connect 154 0 139 0;
#X connect 155 0 152 0;
#X connect 156 0 212 0;
#X connect 157 0 158 0;
#X connect 158 0 160 0;
#X connect 159 0 158 0;
#X connect 161 0 162 0;
#X connect 162 0 157 0;
#X connect 163 0 157 0;
#X connect 164 0 153 0;
#X connect 164 0 144 0;
#X connect 165 0 162 0;
#X connect 165 0 202 0;
#X connect 166 0 165 0;
#X connect 167 0 150 0;
#X connect 168 0 65 0;
#X connect 169 0 171 0;
#X connect 170 0 171 0;
#X connect 171 0 172 0;
#X connect 172 0 173 0;
#X connect 172 2 173 0;
#X connect 173 0 177 0;
#X connect 174 0 175 0;
#X connect 174 0 178 0;
#X connect 177 0 174 0;
#X connect 178 1 179 0;
#X connect 178 3 180 0;
#X connect 178 5 181 0;
#X connect 179 0 182 0;
#X connect 180 0 195 0;
#X connect 181 0 223 0;
#X connect 182 0 183 0;
#X connect 182 0 185 0;
#X connect 184 0 187 0;
#X connect 184 0 257 1;
#X connect 187 0 256 0;
#X connect 191 0 192 0;
#X connect 191 0 193 0;
#X connect 193 0 194 0;
#X connect 193 0 196 0;
#X connect 195 0 190 0;
#X connect 195 0 191 0;
#X connect 198 0 111 0;
#X connect 199 0 100 0;
#X connect 200 0 104 0;
#X connect 201 0 116 0;
#X connect 202 0 163 0;
#X connect 203 0 239 0;
#X connect 204 0 239 0;
#X connect 205 0 239 0;
#X connect 207 0 257 1;
#X connect 209 0 36 0;
#X connect 209 0 230 0;
#X connect 210 0 79 0;
#X connect 211 0 242 0;
#X connect 212 0 79 0;
#X connect 213 0 280 0;
#X connect 214 0 213 0;
#X connect 215 0 94 0;
#X connect 216 0 95 0;
#X connect 219 0 120 0;
#X connect 219 0 138 0;
#X connect 220 0 280 0;
#X connect 221 0 229 0;
#X connect 222 0 224 0;
#X connect 223 0 222 0;
#X connect 224 0 225 0;
#X connect 225 0 226 0;
#X connect 226 0 227 0;
#X connect 227 0 228 0;
#X connect 229 0 11 0;
#X connect 230 0 208 0;
#X connect 231 0 171 0;
#X connect 234 0 92 0;
#X connect 235 0 2 0;
#X connect 236 0 141 0;
#X connect 236 0 164 0;
#X connect 237 0 159 0;
#X connect 237 0 166 0;
#X connect 238 0 147 0;
#X connect 238 0 151 0;
#X connect 239 0 36 0;
#X connect 239 0 199 0;
#X connect 239 0 200 0;
#X connect 239 0 201 0;
#X connect 240 0 130 0;
#X connect 241 0 123 0;
#X connect 241 0 124 0;
#X connect 242 0 79 0;
#X connect 243 0 6 0;
#X connect 244 0 243 0;
#X connect 246 0 16 0;
#X connect 246 0 50 0;
#X connect 249 0 88 0;
#X connect 250 0 64 0;
#X connect 251 0 252 0;
#X connect 251 0 156 0;
#X connect 251 0 211 0;
#X connect 252 0 78 0;
#X connect 253 0 256 1;
#X connect 254 0 256 1;
#X connect 255 0 256 1;
#X connect 256 0 206 0;
#X connect 256 0 207 0;
#X connect 257 0 246 0;
#X connect 258 0 187 0;
#X connect 259 0 254 0;
#X connect 261 0 264 0;
#X connect 262 0 261 1;
#X connect 262 0 263 0;
#X connect 262 0 266 1;
#X connect 263 0 274 0;
#X connect 264 0 262 0;
#X connect 265 0 272 0;
#X connect 266 0 267 0;
#X connect 267 0 262 0;
#X connect 268 0 270 0;
#X connect 269 0 268 0;
#X connect 270 0 261 0;
#X connect 271 0 49 0;
#X connect 272 0 266 0;
#X connect 273 0 271 0;
#X connect 274 0 273 0;
#X connect 277 0 256 1;
#X connect 278 0 63 0;
#X connect 278 0 250 0;
#X connect 278 0 31 0;
#X connect 280 0 68 0;
#X connect 280 0 69 0;
